<?xml version="1.0" encoding="utf-8"?>
<!-- Generator: Adobe Illustrator 19.1.0, SVG Export Plug-In . SVG Version: 6.00 Build 0)  -->
<svg version="1.1" xmlns="http://www.w3.org/2000/svg" xmlns:xlink="http://www.w3.org/1999/xlink" x="0px" y="0px"
	 viewBox="0 0 960 560" enable-background="new 0 0 960 560" xml:space="preserve">
<g id="Layer_1">
	
		<ellipse transform="matrix(0.9844 0.1757 -0.1757 0.9844 118.8299 -37.0469)" fill="#A67C52" stroke="#000000" stroke-width="4" stroke-miterlimit="10" cx="268.7" cy="652.7" rx="141.3" ry="171"/>
	<path fill="#A67C52" stroke="#000000" stroke-width="4" stroke-miterlimit="10" d="M106.2,238.9c-51-93.3-48.3-188.2-15.3-202.2
		s112.1,47.1,134.9,151.4C249.3,296.2,274,376.3,241,390.3C208,404.3,156.5,330.7,106.2,238.9z"/>
	<path fill="#FCC3DE" stroke="#000000" stroke-miterlimit="10" d="M133.9,250.7c-35.3-64.4-33.4-130.1-10.6-139.7
		s77.5,32.5,93.2,104.7c16.3,74.7,33.4,130.1,10.6,139.7C204.3,365,168.6,314.2,133.9,250.7z"/>
	<path fill="#A67C52" stroke="#000000" stroke-width="4" stroke-miterlimit="10" d="M553,292.8c72.5-75.8,93.6-167.3,65.3-189.3
		C590,81.4,498.6,119.1,450.6,213c-49.7,97.2-93.6,167.3-65.3,189.3C413.5,424.4,481.6,367.5,553,292.8z"/>
	
		<ellipse transform="matrix(0.9961 8.852271e-02 -8.852271e-02 0.9961 40.7211 -25.9143)" fill="#A67C52" stroke="#000000" stroke-width="4" stroke-miterlimit="10" cx="312.5" cy="446.1" rx="121.1" ry="100.2"/>
	
		<ellipse transform="matrix(0.9961 8.852271e-02 -8.852271e-02 0.9961 40.7199 -26.1833)" stroke="#000000" stroke-width="4" stroke-miterlimit="10" cx="315.6" cy="446" rx="27.2" ry="18.6"/>
	<g>
		<g>
			<g>
				<path d="M230.7,447.4c-11,31.6,15.1,61.2,42.3,73.9c29.9,14,65.4,11.8,93.1-6.3c13.7-8.9,26.3-22.1,26.7-39.4
					c0.3-11.6-17.7-11.6-18,0c-0.3,13.4-15.1,23-25.7,28.4c-14.3,7.3-30.6,10.1-46.5,7.7c-16.2-2.5-30.6-9.9-42.4-21.3
					c-10.9-10.5-17.3-23.3-12.1-38.3C251.8,441.2,234.4,436.5,230.7,447.4L230.7,447.4z"/>
			</g>
		</g>
		<path stroke="#000000" stroke-width="6" stroke-miterlimit="10" d="M247.5,445.1c-0.5,3.1-3.9,5.2-7.6,4.7
			c-3.7-0.5-6.3-3.4-5.8-6.4c0.5-3.1,3.9-5.2,7.6-4.7C245.4,439.2,248,442.1,247.5,445.1z"/>
		<path stroke="#000000" stroke-width="6" stroke-miterlimit="10" d="M390.3,476.4c-0.5,3.1-3.9,5.2-7.6,4.7
			c-3.7-0.5-6.3-3.4-5.8-6.4c0.5-3.1,3.9-5.2,7.6-4.7C388.2,470.5,390.8,473.4,390.3,476.4z"/>
	</g>
	
		<ellipse transform="matrix(0.9968 -8.005814e-02 8.005814e-02 0.9968 -30.4411 22.7451)" cx="268.4" cy="391" rx="31.1" ry="24.7"/>
	<ellipse transform="matrix(0.9208 0.3901 -0.3901 0.9208 188.5129 -114.2091)" cx="375.4" cy="407" rx="31.1" ry="24.7"/>
	<path fill="#FCC3DE" stroke="#000000" stroke-miterlimit="10" d="M456.6,237.9c38.6-62.5,96.6-93.3,116.3-78.2s10,83.4-45,132.7
		c-56.9,51-96.6,93.3-116.3,78.2C392,355.6,418.6,299.5,456.6,237.9z"/>
</g>
<g id="Layer_9" display="none">
	<text transform="matrix(1 0 0 1 211.0282 58.0729)" display="inline"><tspan x="0" y="0" font-family="'CollectorComic'" font-size="24px">To customize a brownie book go to </tspan><tspan x="71.8" y="28.8" font-family="'CollectorComic'" font-size="24px">browniesbigadventure.com</tspan></text>
</g>
<g id="Layer_7">
</g>
<g id="Layer_6">
</g>
<g id="Layer_5">
</g>
<g id="Layer_2">
</g>
<g id="Layer_4">
</g>
<g id="Layer_3" display="none">
	<path display="inline" fill="#FF931E" d="M497.4,144.1c-7,4.7-9.8,15.2-15.2,36.2c-3.1,11.9-4.3,20.3-4.3,20.3
		c-1.3,8.7-0.8,9.9-2.2,14.5c-2.5,8.2-5.8,9.8-10.9,18.8c-4.8,8.5-6.8,15.7-8.7,22.5c-3.7,13.3-1.6,14.7-5.1,24.6
		c-3.6,10.4-6.1,9.4-11.6,21.7c-4.6,10.3-6.5,19.3-8.7,29.7c-2.6,12.4-1.7,13.2-4.3,22.5c-1.2,4-1.6,4.9-7.2,20.3
		c-4.1,11.3-6.2,16.9-6.5,18.8c-2.1,11.2-0.9,27.2,5.1,29c6.7,2.1,17.3-14.5,19.6-18.1c5.4-8.5,7.9-16.8,9.4-21.7
		c3.1-10.6,1.5-11.2,4.3-19.6c2.6-7.7,4.5-8.9,12.3-23.2c3.6-6.6,7.2-13.2,10.9-21.7c6.5-15.2,4.8-16.6,10.1-26.8
		c5.8-10.9,8.2-9.9,13-20.3c1.8-3.9,3.6-10.1,7.2-22.5c4.1-13.9,4.3-16.5,7.2-21.7c3-5.5,4.6-6.1,10.1-13.8c0,0,6.5-9,12.3-20.3
		c9-17.4,13.4-26.1,10.9-34.1C540.3,143.9,511.5,134.6,497.4,144.1z"/>
</g>
<g id="Layer_8">
</g>
</svg>
